<svg width="126" height="118" viewBox="0 0 126 118" fill="none" xmlns="http://www.w3.org/2000/svg">
<path d="M64.326 18.1483C63.936 17.7752 63.4171 17.567 62.8774 17.567C62.3377 17.567 61.8188 17.7752 61.4288 18.1483L13.2027 64.2185C12.9979 64.4144 12.8349 64.6498 12.7237 64.9105C12.6125 65.1712 12.5553 65.4518 12.5556 65.7352L12.5478 108.974C12.5478 111.197 13.431 113.329 15.003 114.901C16.575 116.473 18.7072 117.356 20.9304 117.356H46.1043C47.2159 117.356 48.282 116.915 49.068 116.129C49.854 115.343 50.2956 114.277 50.2956 113.165V77.5389C50.2956 76.9831 50.5164 76.4501 50.9094 76.0571C51.3024 75.6641 51.8355 75.4433 52.3913 75.4433H73.3478C73.9036 75.4433 74.4366 75.6641 74.8296 76.0571C75.2226 76.4501 75.4434 76.9831 75.4434 77.5389V113.165C75.4434 114.277 75.885 115.343 76.671 116.129C77.457 116.915 78.5231 117.356 79.6347 117.356H104.798C107.021 117.356 109.154 116.473 110.726 114.901C112.298 113.329 113.181 111.197 113.181 108.974V65.7352C113.181 65.4518 113.124 65.1712 113.013 64.9105C112.901 64.6498 112.739 64.4144 112.534 64.2185L64.326 18.1483Z" fill="black"/>
<path d="M124.406 55.5739L104.811 36.8284V8.38259C104.811 7.27099 104.37 6.20492 103.584 5.4189C102.798 4.63288 101.732 4.19129 100.62 4.19129H88.0461C86.9345 4.19129 85.8684 4.63288 85.0824 5.4189C84.2964 6.20492 83.8548 7.27099 83.8548 8.38259V16.7652L68.6823 2.25806C67.2625 0.822541 65.1511 0 62.8695 0C60.5957 0 58.4896 0.822542 57.0698 2.26068L1.35179 55.5687C-0.277574 57.1404 -0.4819 59.7259 1.00077 61.4287C1.37309 61.8584 1.82897 62.208 2.34067 62.456C2.85237 62.704 3.40918 62.8453 3.97722 62.8713C4.54526 62.8972 5.11264 62.8074 5.64484 62.6071C6.17704 62.4068 6.66292 62.1003 7.07291 61.7063L61.4288 9.76572C61.8188 9.39264 62.3377 9.18442 62.8774 9.18442C63.4171 9.18442 63.936 9.39264 64.326 9.76572L118.687 61.7063C119.488 62.4742 120.56 62.8933 121.67 62.8717C122.779 62.8501 123.834 62.3896 124.605 61.5911C126.213 59.925 126.079 57.1745 124.406 55.5739Z" fill="black"/>
</svg>
